{"title":"Adele-Someone Like You 720p (Shy_Rage)","uid":6656526,"size":54120354,"categoryP":"video","categoryS":"music_videos","magnet":"?xt=urn:btih:3085349e3562c0e31e0bd063323fbcdbc22922fc&amp;dn=Adele-Someone+Like+You+720p+%28Shy_Rage%29&amp;tr=udp%3A%2F%2Ftracker.openbittorrent.com%3A80&amp;tr=udp%3A%2F%2Fopen.demonii.com%3A1337&amp;tr=udp%3A%2F%2Ftracker.coppersurfer.tk%3A6969&amp;tr=udp%3A%2F%2Fexodus.desync.com%3A6969","seeders":1,"leechers":0,"uploader":"Shy_Rage","files":-1,"time":1315339865,"description":"~*~*~*~*~*~*~*~*~*Adele-Someone Like You 720p (Shy_Rage)~*~*~*~*~*~*~*~*~*\n\n=========================================================================\n~~~~~~~~~~~~~~~~~~~~~~~~~~~~~~~~~~~~~~~~~~~~~~~~~~~~~~~~~~~~~~~~~~~~~~~~~\n-------------------------------------------------------------------------\nGeneral\nComplete name                    : Adele-Someone Like You (Live in Her Room).MP4\nFormat                           : MPEG-4\nFormat profile                   : Base Media / Version 2\nCodec ID                         : mp42\nFile size                        : 51.6 MiB\nDuration                         : 6mn 28s\nOverall bit rate                 : 1 116 Kbps\nEncoded date                     : UTC 2011-01-28 01:07:50\nTagged date                      : UTC 2011-01-28 01:07:50\n\n\nVideo\nID                               : 1\nFormat                           : AVC\nFormat/Info                      : Advanced Video Codec\nFormat profile                   : &lt;a class=&quot;__cf_email__&quot; href=&quot;/cdn-cgi/l/email-protection&quot; data-cfemail=&quot;551d3c323d1519667b64&quot;&gt;[email&amp;#160;protected]&lt;/a&gt;&lt;script data-cfhash='f9e31' type=&quot;text/javascript&quot;&gt;\n/* &lt;![CDATA[ */!function(){try{var t=&quot;currentScript&quot;in document?document.currentScript:function(){for(var t=document.getElementsByTagName(&quot;script&quot;),e=t.length;e--;)if(t[e].getAttribute(&quot;data-cfhash&quot;))return t[e]}();if(t&amp;&amp;t.previousSibling){var e,r,n,i,c=t.previousSibling,a=c.getAttribute(&quot;data-cfemail&quot;);if(a){for(e=&quot;&quot;,r=parseInt(a.substr(0,2),16),n=2;a.length-n;n+=2)i=parseInt(a.substr(n,2),16)^r,e+=String.fromCharCode(i);e=document.createTextNode(e),c.parentNode.replaceChild(e,c)}t.parentNode.removeChild(t);}}catch(u){}}()/* ]]&gt; */&lt;/script&gt;\nFormat settings, CABAC           : Yes\nFormat settings, ReFrames        : 1 frame\nCodec ID                         : avc1\nCodec ID/Info                    : Advanced Video Coding\nDuration                         : 6mn 28s\nBit rate                         : 983 Kbps\nMaximum bit rate                 : 3 186 Kbps\nWidth                            : 1 280 pixels\nHeight                           : 720 pixels\nDisplay aspect ratio             : 16:9\nFrame rate mode                  : Constant\nFrame rate                       : 25.000 fps\nColor space                      : YUV\nChroma subsampling               : 4:2:0\nBit depth                        : 8 bits\nScan type                        : Progressive\nBits/(Pixel*Frame)               : 0.043\nStream size                      : 45.5 MiB (88%)\nTagged date                      : UTC 2011-01-28 01:07:58\n\nAudio\nID                               : 2\nFormat                           : AAC\nFormat/Info                      : Advanced Audio Codec\nFormat profile                   : LC\nCodec ID                         : 40\nDuration                         : 6mn 27s\nBit rate mode                    : Variable\nBit rate                         : 128 Kbps\nMaximum bit rate                 : 161 Kbps\nChannel(s)                       : 2 channels\nChannel positions                : Front: L R\nSampling rate                    : 44.1 KHz\nCompression mode                 : Lossy\nStream size                      : 5.92 MiB (11%)\nEncoded date                     : UTC 2011-01-28 01:07:54\nTagged date                      : UTC 2011-01-28 01:07:58\n\n=========================================================================\n~~~~~~~~~~~~~~~~~~~~~~~~~~~~~~~~~~~~~~~~~~~~~~~~~~~~~~~~~~~~~~~~~~~~~~~~~\n-------------------------------------------------------------------------\n\n\nPlease SEED and RATE my torrents!!","torrent":{"xt":"urn:btih:3085349e3562c0e31e0bd063323fbcdbc22922fc","amp;dn":"Adele-Someone+Like+You+720p+%28Shy_Rage%29","amp;tr":["udp%3A%2F%2Ftracker.openbittorrent.com%3A80","udp%3A%2F%2Fopen.demonii.com%3A1337","udp%3A%2F%2Ftracker.coppersurfer.tk%3A6969","udp%3A%2F%2Fexodus.desync.com%3A6969"],"infoHash":"3085349e3562c0e31e0bd063323fbcdbc22922fc","infoHashBuffer":{"type":"Buffer","data":[48,133,52,158,53,98,192,227,30,11,208,99,50,63,188,219,194,41,34,252]},"announce":[],"urlList":[]}}